<?xml version="1.0" encoding="UTF-8"?>
<!-- Uploaded to: SVG Find, www.svgrepo.com, Generator: SVG Find Mixer Tools -->
<svg fill="#000000" width="800px" height="800px" version="1.1" viewBox="144 144 512 512" xmlns="http://www.w3.org/2000/svg">
 <g>
  <path d="m211.07 169.09c-23.078 0-41.984 18.906-41.984 41.984v377.86c0 23.078 18.906 41.984 41.984 41.984h377.86c23.078 0 41.984-18.906 41.984-41.984v-377.86c0-23.078-18.906-41.984-41.984-41.984zm0 20.992h377.86c11.812 0 20.992 9.1797 20.992 20.992v252.15c-29.691-35.902-59.352-71.992-89.051-107.81-14.934-16.016-42.66-15.07-55.656 1.3516-34.887 40.996-69.797 82.004-104.7 123-4.6484 5.4648-12.832 5.7148-18.039 0.57422l-63.859-63.059c-15.715-15.516-41.438-15.094-56.641 0.92188l-31.898 33.574v-240.71c0-11.812 9.1797-20.992 20.992-20.992zm294.61 179.87 104.24 126.26v92.719c0 11.812-9.1797 20.992-20.992 20.992h-377.86c-11.812 0-20.992-9.1797-20.992-20.992v-106.64l47.109-49.629c7.293-7.6836 19.152-7.875 26.691-0.42969l63.859 63.059c13.613 13.441 36.273 12.773 48.77-1.9062l104.53-122.82c7.8438-8.1445 16.82-8.8086 24.641-0.61328z"/>
  <path d="m300.29 242.56c-31.758 0-57.727 25.969-57.727 57.727 0 31.758 25.969 57.727 57.727 57.727 31.758 0 57.727-25.969 57.727-57.727 0-31.758-25.969-57.727-57.727-57.727zm0 20.992c20.414 0 36.734 16.324 36.734 36.734 0 20.414-16.324 36.734-36.734 36.734-20.414 0-36.734-16.324-36.734-36.734 0-20.414 16.324-36.734 36.734-36.734z"/>
 </g>
</svg>